<?xml version="1.0" encoding="utf-8"?>
<!-- Generator: Adobe Illustrator 24.3.0, SVG Export Plug-In . SVG Version: 6.00 Build 0)  -->
<svg version="1.1" id="Layer_1" xmlns="http://www.w3.org/2000/svg" xmlns:xlink="http://www.w3.org/1999/xlink" x="0px" y="0px"
	 viewBox="0 0 283.5 141.7" style="enable-background:new 0 0 283.5 141.7;" xml:space="preserve">
<style type="text/css">
	.st0{font-family:'Abel-Regular';}
	.st1{font-size:21.0848px;}
	.st2{fill:#010101;}
</style>
<g>
	<text transform="matrix(1 0 0 1 91.1063 114.0435)" class="st0 st1">Skin Therapy</text>
	<g>
		<path class="st2" d="M37,30.4c-14.8,0-25.1,10.7-25.1,26.1c0,15.5,9.6,25.2,24.9,25.2c14.9,0,25.3-10.7,25.3-26
			C62.1,40,52.5,30.4,37,30.4z M37,32.1c10,0,17.2,10,17.2,23.8c0,14.1-7.1,23.9-17.2,23.9c-10.2,0-17.3-9.7-17.3-23.7
			C19.7,42,26.8,32.1,37,32.1z"/>
		<path class="st2" d="M115.1,31.6c-4.7,0-10.5,0.1-16.3,0.1c-13,0-20.6-0.1-22.7-0.2l-0.6,0l0.1,0.6c0.3,2.7,0.4,5.5,0.4,8.8
			c0,2.6,0,4.5-0.1,6.1l0,0.6h1.9l0-0.5c0.9-11,3.1-13.7,11-13.7h6.2v37.6c-0.2,7-0.5,7.3-7.3,7.7l-0.5,0v1.6l0.6,0
			c0.9,0,1.9-0.1,3.1-0.2c2.1-0.2,4.7-0.4,7.9-0.4c3,0,5.4,0.2,7.4,0.4c1.2,0.1,2.4,0.2,3.5,0.2l0.6,0v-1.6l-0.5,0
			c-6.5-0.4-7.1-0.6-7.3-7.7V33.5h7.5c8,0,10.1,2.7,11,13.7l0,0.5h2L123,47c-0.2-1.3-0.2-3.7-0.2-6c0-2.5,0.2-5.4,0.5-8.5l0.1-0.9
			h-0.6C120.9,31.6,118.3,31.6,115.1,31.6z"/>
		<path class="st2" d="M171.8,73.8l-18.1-42.7h-1.5L135,71.3c-2.1,5.2-4.1,6.8-6.7,7.7l-0.4,0.1v1l0.1,0.6l0.6-0.1
			c1.5-0.2,4-0.6,6.8-0.6c2.1,0,3.7,0.1,4.9,0.3c0.6,0,1.1,0.1,1.6,0.1l0.6,0v-1.6l-0.5,0c-3.7-0.4-5.6-2-5.6-4.7
			c0-1.2,0.4-2.8,1.3-5.1l2.7-6h18.6l3.9,9.2c0.8,1.7,1.2,2.8,1.2,3.8c0,1.7-1.7,2.7-5,2.8l-0.5,0v1.7l0.6,0c0.7,0,1.5-0.1,2.4-0.1
			c1.9-0.1,4.2-0.3,7-0.3c2.3,0,3.9,0.1,5.4,0.3c0.8,0.1,1.6,0.1,2.4,0.2l0.6,0v-1.6l-0.5,0C174.9,78.6,173.4,77.1,171.8,73.8z
			 M141.2,61.3l7.4-16.9c0.5-1,1.1-2,1.4-2.2c0.3,0.2,0.8,1.2,1.4,2.7c0,0.1,0,0.2,0.1,0.4c1.4,3,4.6,10.3,7.1,16.1
			C158.6,61.3,141.2,61.3,141.2,61.3z"/>
		<path class="st2" d="M235.3,31.8c-1.4,0.1-2.9,0.3-4.5,0.3c-3.3,0-5.8-0.3-7.4-0.5l-0.6-0.1v1.8l0.5,0c5.4,0.4,6.6,1.8,6.6,7.6
			v6.6c0,14.5,0,18.4-0.4,19c-0.1,0-0.6,0-1.4-1c-0.4-0.6-0.9-1.1-1.6-2c-2.5-2.9-8.4-9.7-23.6-31.7l-0.2-0.3l-0.7,0
			c-1.7,0.1-3.3,0.1-5.9,0.1c-0.7,0-1.2,0-1.8,0c-2,0-3.5,0-4.9-0.2l-0.6-0.1v1.8l0.5,0c4.7,0.2,5.8,0.9,5.8,6.7v31.1
			c0,5.9-1.2,7.5-5.8,7.7l-0.5,0v1.7l0.6,0c0.6,0,1.3-0.1,2.1-0.1c1.4-0.1,3-0.3,4.7-0.3c2.1,0,3.8,0.1,5.3,0.3
			c0.8,0.1,1.5,0.1,2.1,0.1l0.6,0v-1.7l-0.5,0c-5.3-0.2-6.6-1.7-6.6-7.7V39c0.1-1,0.3-1.1,0.4-1.2c0,0,0.5,0,1.7,1.6
			c5,7,10.4,14,15.7,20.8c5.1,6.6,10.4,13.3,15.1,20l0.2,0.2h1.8V40.9c0-6.2,1.4-7.3,5.9-7.6l0.5,0v-1.7l-0.6,0
			C236.9,31.6,236.2,31.7,235.3,31.8z"/>
		<path class="st2" d="M257,27.9c1.9,0,3.3-1.4,3.3-3.2s-1.5-3.2-3.3-3.2c-1.8,0-3.2,1.5-3.2,3.2S255.2,27.9,257,27.9z"/>
		<path class="st2" d="M265.5,27.9c1.9,0,3.2-1.3,3.2-3.2s-1.3-3.2-3.2-3.2c-1.9,0-3.2,1.4-3.2,3.2
			C262.3,26.6,263.7,27.9,265.5,27.9z"/>
		<path class="st2" d="M271,33.3l0.5,0v-1.8l-0.6,0.1c-1.9,0.2-4.2,0.2-7,0.2l-2.3,0c-1,0-1.9,0-2.7,0c-2.9,0-5.1,0-6.8-0.2
			l-0.6-0.1v1.8l0.5,0c4.7,0.2,5.8,0.9,5.8,6.7v32c0,6.3-0.7,6.6-5.8,6.8l-0.5,0v1.7l0.6,0c2.3-0.1,5.3-0.1,9.5-0.1
			c4.1,0,6.8,0,9.4,0.1l0.6,0v-1.6l-0.5,0c-4.6-0.2-5.8-1.1-5.8-6.8V40C265.2,34,265.6,33.5,271,33.3z"/>
	</g>
</g>
</svg>
